<?xml version="1.0" standalone="no"?>
<!DOCTYPE svg PUBLIC "-//W3C//DTD SVG 20010904//EN"
 "http://www.w3.org/TR/2001/REC-SVG-20010904/DTD/svg10.dtd">
<svg version="1.0" xmlns="http://www.w3.org/2000/svg"
 width="1280.000000pt" height="640.000000pt" viewBox="0 0 1280.000000 640.000000"
 preserveAspectRatio="xMidYMid meet">
<metadata>
Created by potrace 1.15, written by Peter Selinger 2001-2017
</metadata>
<g transform="translate(0.000000,640.000000) scale(0.100000,-0.100000)"
fill="#795548" stroke="none">
<path d="M11840 5673 c-43 -82 -154 -180 -365 -323 -238 -161 -321 -238 -371
-345 -62 -129 -57 -253 16 -442 31 -83 128 -250 199 -346 l42 -58 -13 -62
c-10 -43 -18 -62 -28 -61 -8 1 -60 11 -115 23 -163 33 -325 45 -462 33 -279
-26 -405 -86 -1168 -561 -165 -103 -316 -197 -337 -209 l-36 -23 -37 45 -37
45 14 73 c8 45 13 146 13 263 0 180 -2 194 -27 263 -59 163 -140 243 -431 431
-115 73 -233 154 -263 178 -30 25 -57 43 -59 41 -2 -2 3 -24 13 -48 26 -71 22
-260 -11 -445 -47 -269 -45 -372 8 -482 74 -149 284 -259 580 -303 44 -6 89
-13 101 -16 12 -2 33 -21 47 -43 l26 -39 -138 -76 c-385 -211 -733 -327 -1231
-411 -284 -49 -679 -68 -930 -46 -195 17 -183 11 -147 78 16 30 34 56 41 58 6
1 65 13 130 25 203 38 324 90 423 184 90 83 129 168 203 441 33 121 70 248 84
283 26 66 25 74 -8 43 -60 -55 -194 -97 -410 -126 -224 -31 -327 -68 -403
-147 -52 -53 -88 -131 -104 -223 -14 -80 -6 -282 15 -386 l13 -65 -51 -66 -51
-65 -105 23 c-319 71 -624 220 -880 429 -46 37 -107 82 -135 100 -124 80 -297
150 -441 180 -43 9 -79 17 -80 18 -1 1 1 18 3 38 4 30 12 40 46 60 158 88 280
191 334 280 64 107 75 214 48 454 -8 72 -15 173 -15 225 -1 78 -3 91 -13 75
-34 -57 -138 -144 -237 -200 -181 -100 -246 -143 -289 -191 -125 -135 -113
-313 42 -588 36 -64 38 -72 28 -106 l-11 -37 -142 -6 c-162 -6 -187 -10 -424
-77 -225 -64 -362 -114 -715 -263 -162 -69 -316 -132 -344 -142 -50 -18 -50
-18 -86 6 -34 22 -37 28 -43 89 -9 82 -32 173 -57 222 -48 93 -106 133 -289
196 -63 22 -137 50 -164 61 l-48 21 21 -35 c30 -51 40 -97 51 -236 12 -152 30
-209 81 -260 54 -54 121 -72 275 -71 103 0 125 -2 138 -17 14 -16 7 -19 -97
-53 -266 -87 -526 -130 -661 -108 -62 10 -181 49 -173 57 2 2 27 -1 55 -7 96
-21 130 -2 253 138 l45 52 -40 0 c-22 0 -73 9 -114 21 -46 13 -87 18 -107 15
-46 -9 -91 -59 -113 -125 -11 -32 -25 -57 -34 -59 -36 -7 -178 134 -251 249
l-35 55 33 27 c33 26 34 27 117 16 147 -19 256 5 334 74 27 24 86 101 139 183
51 78 98 144 104 148 28 18 6 22 -46 8 -53 -13 -69 -13 -201 8 -205 32 -284
17 -347 -66 -35 -46 -81 -175 -90 -253 -6 -49 -11 -62 -36 -80 l-30 -22 -28
63 c-39 86 -86 237 -110 350 l-19 93 26 20 c23 17 39 19 124 16 162 -5 203 18
304 172 36 56 76 112 87 125 l21 23 -57 -7 c-31 -4 -105 -1 -165 6 -59 7 -125
10 -145 6 -78 -15 -134 -96 -157 -228 -8 -43 -17 -69 -27 -73 -9 -3 -18 -4
-20 -2 -7 7 -4 161 6 283 15 191 -5 347 -57 449 -8 16 -35 59 -59 95 -43 66
-43 66 -33 119 30 160 0 222 -165 343 -33 25 -66 52 -74 61 -22 27 -30 20 -20
-18 8 -27 5 -60 -10 -137 -32 -157 -26 -197 38 -251 27 -22 123 -60 175 -69
25 -4 92 -118 119 -203 19 -59 22 -91 20 -205 -1 -74 -6 -148 -11 -165 -11
-34 -14 -28 -31 55 -14 69 -41 114 -83 141 -29 18 -41 19 -108 13 -41 -5 -105
-8 -142 -8 -45 0 -64 -4 -60 -11 4 -6 36 -53 71 -104 81 -117 106 -131 228
-131 48 0 94 -4 102 -9 13 -8 12 -27 -2 -143 -10 -73 -18 -173 -18 -223 l-1
-90 -20 43 c-25 53 -66 88 -121 103 -34 9 -67 8 -173 -6 -122 -17 -173 -17
-217 0 -25 10 146 -242 195 -288 59 -54 126 -71 254 -64 101 7 101 7 127 -21
15 -16 27 -34 27 -42 0 -34 35 -151 65 -215 18 -38 54 -99 80 -135 26 -36 37
-55 24 -43 -41 37 -124 73 -168 73 -60 0 -94 -21 -203 -125 -66 -64 -110 -97
-140 -108 -26 -9 -37 -17 -28 -20 8 -2 74 -26 145 -52 173 -62 224 -67 307
-28 35 17 88 54 120 82 69 62 94 65 175 16 72 -43 169 -80 259 -98 l69 -14
-50 -7 c-76 -11 -152 -44 -184 -81 -41 -47 -59 -111 -71 -256 -12 -139 -19
-174 -50 -226 -11 -19 -20 -36 -20 -39 0 -2 17 4 37 15 21 10 99 40 173 66
194 67 252 110 300 218 21 48 50 180 50 229 0 27 7 37 35 56 19 12 45 22 57
22 13 0 57 9 98 19 234 59 418 109 600 163 337 99 535 156 538 153 1 -1 -2
-13 -7 -27 -7 -19 -30 -32 -109 -62 -197 -74 -360 -192 -410 -296 -63 -132
-50 -230 72 -529 60 -148 76 -212 76 -307 l0 -79 37 45 c21 25 114 124 208
220 235 241 277 317 277 503 -1 114 -27 232 -88 387 l-25 65 26 48 c15 26 34
51 43 56 23 12 217 48 327 61 118 15 359 15 465 0 161 -22 296 -85 480 -226
157 -120 148 -107 138 -189 l-9 -70 -57 -40 c-100 -71 -216 -195 -253 -271
-29 -58 -34 -79 -34 -139 0 -95 33 -162 171 -345 109 -145 148 -215 163 -293
8 -40 8 -41 18 -17 6 14 18 43 27 65 9 21 57 111 105 200 49 88 97 183 106
210 23 68 30 172 15 236 -17 77 -90 222 -156 308 l-55 74 13 52 13 52 115 -99
c163 -140 278 -220 405 -283 229 -112 570 -206 901 -249 145 -19 430 -37 539
-35 44 1 79 -1 78 -4 -2 -4 -3 -19 -3 -34 -1 -23 -14 -38 -76 -83 -42 -30
-117 -97 -167 -150 -117 -121 -158 -197 -165 -303 -8 -130 33 -221 187 -415
46 -57 103 -135 126 -172 41 -62 85 -169 85 -205 0 -29 15 -15 34 33 10 26 64
130 120 232 55 101 113 213 128 247 93 217 48 418 -156 694 -62 84 -62 85 -52
124 l11 39 180 18 c340 34 661 102 975 208 253 85 423 157 700 299 629 320
755 377 966 431 140 36 144 37 144 5 0 -19 -18 -38 -82 -86 -111 -83 -255
-230 -300 -304 -95 -158 -89 -317 17 -479 26 -38 91 -127 145 -196 139 -178
186 -264 205 -375 l7 -40 48 102 c26 55 91 180 144 275 52 96 107 205 121 243
86 227 27 452 -191 743 -53 71 -56 77 -48 111 9 34 11 36 64 44 62 9 214 -6
304 -29 62 -16 150 -50 406 -157 255 -105 370 -140 532 -159 86 -9 125 -9 197
1 145 20 215 51 406 175 240 158 330 267 329 406 0 64 -32 983 -37 1050 l-2
35 -44 -64 c-58 -85 -178 -210 -260 -270 -189 -140 -405 -203 -587 -172 -38 7
-141 35 -229 63 -88 27 -171 53 -185 57 -21 6 -26 15 -28 52 -6 82 3 103 66
144 266 177 438 375 487 565 28 105 16 288 -34 535 -23 110 -46 251 -53 313
-6 61 -14 112 -17 112 -3 0 -17 -21 -31 -47z"/>
<path d="M6844 5366 c-107 -24 -234 -96 -374 -211 l-76 -62 -67 10 c-81 11
-97 6 -97 -31 0 -27 4 -30 43 -35 23 -3 60 -4 82 -1 40 4 40 4 105 -77 158
-198 326 -308 495 -325 80 -8 157 5 380 66 99 27 220 57 269 66 l88 18 -62 30
c-78 38 -149 106 -275 266 -55 69 -124 149 -154 178 -102 99 -227 137 -357
108z"/>
<path d="M3024 5255 c5 -11 11 -52 13 -91 5 -61 -1 -95 -38 -240 -68 -269 -59
-365 43 -465 54 -53 193 -119 314 -150 l91 -23 29 -53 c29 -55 32 -57 58 -47
25 10 18 46 -17 88 l-33 39 23 101 c28 121 32 283 8 360 -32 105 -81 161 -268
305 -60 46 -136 109 -170 140 -34 31 -57 47 -53 36z"/>
<path d="M5283 5242 c-31 -26 -36 -26 -165 -27 -117 0 -139 -3 -183 -23 -61
-28 -91 -55 -116 -105 -19 -36 -25 -71 -49 -282 -6 -57 -18 -107 -33 -137 -13
-27 -22 -48 -20 -48 2 0 20 7 41 16 20 9 88 34 151 55 199 70 256 109 305 212
23 50 56 197 56 252 0 15 13 31 40 49 43 28 47 35 28 54 -16 16 -18 15 -55
-16z"/>
<path d="M160 3963 c-50 -20 -110 -123 -110 -190 0 -18 -10 -35 -27 -49 -22
-18 -25 -25 -16 -35 10 -10 16 -9 31 4 15 13 39 17 111 17 100 0 128 9 172 57
27 28 139 189 139 199 0 2 -10 -1 -22 -7 -14 -7 -44 -9 -87 -5 -123 13 -176
16 -191 9z"/>
<path d="M1230 2216 c0 -41 -38 -115 -106 -208 -36 -49 -76 -111 -90 -138 -33
-65 -33 -143 0 -208 25 -48 122 -148 188 -192 38 -25 48 -44 48 -92 0 -23 4
-28 25 -28 20 0 25 5 25 24 0 14 -4 36 -10 51 -8 22 -4 34 30 84 99 145 130
267 92 372 -10 30 -54 114 -96 185 -42 71 -79 139 -83 151 -7 30 -23 29 -23
-1z"/>
</g>
</svg>
